<?xml version="1.0" encoding="UTF-8"?>
<svg clip-rule="evenodd" fill-rule="evenodd" image-rendering="optimizeQuality" shape-rendering="geometricPrecision" text-rendering="geometricPrecision" viewBox="0 0 2048 2048" xmlns="http://www.w3.org/2000/svg">
 <defs>
  <style type="text/css">.str0 {stroke:black;stroke-width:0.900001} .fil0 {fill:none} .fil1 {fill:#141516}</style>
 </defs>
 <path class="fil0 str0" d="m628.25 479.36h626.28c53.052 0 96.056 43.005 96.056 96.056v190.19c0 53.049-43.004 96.056-96.056 96.056h-626.28c-53.05 0-96.056-43.006-96.056-96.056v-190.19c0-53.05 43.005-96.056 96.056-96.056z"/>
 <path class="fil0 str0" d="m613.84 1023h109.5c30.768 0 55.712 24.942 55.712 55.712 0 30.769-24.944 55.713-55.712 55.713h-109.5c-30.769 0-55.713-24.944-55.713-55.713s24.944-55.712 55.713-55.712z"/>
 <path class="fil0 str0" d="m889.52 1023h107.58c30.767 0 55.713 24.942 55.713 55.712 0 30.769-24.946 55.713-55.713 55.713h-107.58c-30.768 0-55.713-24.944-55.713-55.713s24.945-55.712 55.713-55.712z"/>
 <path class="fil0 str0" d="m1158.5 1023h107.58c30.767 0 55.713 24.942 55.713 55.712 0 30.769-24.946 55.713-55.713 55.713h-107.58c-30.767 0-55.713-24.944-55.713-55.713s24.946-55.712 55.713-55.712z"/>
 <path class="fil0 str0" d="m613.84 1186.3h109.5c30.768 0 55.712 24.944 55.712 55.713s-24.944 55.713-55.712 55.713h-109.5c-30.769 0-55.713-24.944-55.713-55.713s24.944-55.713 55.713-55.713z"/>
 <path class="fil0 str0" d="m887.6 1186.3h107.58c30.767 0 55.713 24.944 55.713 55.713s-24.946 55.713-55.713 55.713h-107.58c-30.769 0-55.713-24.944-55.713-55.713s24.944-55.713 55.713-55.713z"/>
 <path class="fil0 str0" d="m1158.5 1186.3h107.58c30.767 0 55.713 24.944 55.713 55.713s-24.946 55.713-55.713 55.713h-107.58c-30.767 0-55.713-24.944-55.713-55.713s24.946-55.713 55.713-55.713z"/>
 <path class="fil0 str0" d="m613.84 1349.6h109.5c30.768 0 55.712 24.944 55.712 55.713s-24.944 55.713-55.712 55.713h-109.5c-30.769 0-55.713-24.944-55.713-55.713s24.944-55.713 55.713-55.713z"/>
 <path class="fil0 str0" d="m887.6 1349.6h107.58c30.767 0 55.713 24.944 55.713 55.713s-24.946 55.713-55.713 55.713h-107.58c-30.769 0-55.713-24.944-55.713-55.713s24.944-55.713 55.713-55.713z"/>
 <path class="fil0 str0" d="m1158.5 1349.6h107.58c30.767 0 55.713 24.944 55.713 55.713s-24.946 55.713-55.713 55.713h-107.58c-30.767 0-55.713-24.944-55.713-55.713s24.946-55.713 55.713-55.713z"/>
 <path class="fil0 str0" d="m587.91 1622.4h706.97c30.767 0 55.713 24.942 55.713 55.713 0 30.768-24.946 55.713-55.713 55.713h-706.97c-30.768 0-55.712-24.945-55.712-55.713 0-30.77 24.944-55.713 55.712-55.713z"/>
 <path class="fil1" d="m520.67 152.78h843.37c53.05 0 96.056 43.004 96.056 96.056v1550.3c0 53.049-43.005 96.056-96.056 96.056h-843.37c-53.05 0-96.057-43.006-96.057-96.056v-1550.3c0-53.052 43.006-96.056 96.057-96.056zm93.174 870.26h109.5c30.768 0 55.712 24.942 55.712 55.712 0 30.769-24.944 55.713-55.712 55.713h-109.5c-30.769 0-55.713-24.944-55.713-55.713s24.944-55.712 55.713-55.712zm275.68 0h107.58c30.767 0 55.713 24.942 55.713 55.712 0 30.769-24.946 55.713-55.713 55.713h-107.58c-30.768 0-55.713-24.944-55.713-55.713s24.945-55.712 55.713-55.712zm268.96 0h107.58c30.767 0 55.713 24.942 55.713 55.712 0 30.769-24.946 55.713-55.713 55.713h-107.58c-30.767 0-55.713-24.944-55.713-55.713s24.946-55.712 55.713-55.712zm0 163.29h107.58c30.767 0 55.713 24.944 55.713 55.713s-24.946 55.713-55.713 55.713h-107.58c-30.767 0-55.713-24.944-55.713-55.713s24.946-55.713 55.713-55.713zm-270.88 0h107.58c30.767 0 55.713 24.944 55.713 55.713s-24.946 55.713-55.713 55.713h-107.58c-30.769 0-55.713-24.944-55.713-55.713s24.944-55.713 55.713-55.713zm-273.76 0h109.5c30.768 0 55.712 24.944 55.712 55.713s-24.944 55.713-55.712 55.713h-109.5c-30.769 0-55.713-24.944-55.713-55.713s24.944-55.713 55.713-55.713zm0 163.3h109.5c30.768 0 55.712 24.944 55.712 55.713s-24.944 55.713-55.712 55.713h-109.5c-30.769 0-55.713-24.944-55.713-55.713s24.944-55.713 55.713-55.713zm273.76 0h107.58c30.767 0 55.713 24.944 55.713 55.713s-24.946 55.713-55.713 55.713h-107.58c-30.769 0-55.713-24.944-55.713-55.713s24.944-55.713 55.713-55.713zm270.88 0h107.58c30.767 0 55.713 24.944 55.713 55.713s-24.946 55.713-55.713 55.713h-107.58c-30.767 0-55.713-24.944-55.713-55.713s24.946-55.713 55.713-55.713zm-570.57 272.8h706.97c30.767 0 55.713 24.942 55.713 55.713 0 30.768-24.946 55.713-55.713 55.713h-706.97c-30.768 0-55.712-24.945-55.712-55.713 0-30.77 24.944-55.713 55.712-55.713zm40.344-1143.1h626.28c53.052 0 96.056 43.005 96.056 96.056v190.19c0 53.049-43.004 96.056-96.056 96.056h-626.28c-53.05 0-96.056-43.006-96.056-96.056v-190.19c0-53.05 43.005-96.056 96.056-96.056zm15.368-219.01h597.47c30.767 0 55.713 24.942 55.713 55.713 0 30.768-24.946 55.713-55.713 55.713h-597.47c-30.769 0-55.713-24.945-55.713-55.713 0-30.77 24.944-55.713 55.713-55.713z"/>
 <path class="fil1" d="m1567.7 639.78c30.767 0 55.713 24.942 55.713 55.713v979.77c0 30.769-24.946 55.713-55.713 55.713s-55.713-24.944-55.713-55.713v-979.77c0-30.77 24.946-55.713 55.713-55.713z"/>
</svg>
